<?xml version="1.0" encoding="UTF-8"?>
<svg id="Layer_2" data-name="Layer 2" xmlns="http://www.w3.org/2000/svg" viewBox="0 0 1090.97 309.13">
  <defs>
    <style>
      .cls-1 {
        fill: #eb2227;
      }

      .cls-2 {
        fill: #e6e7e7;
      }
    </style>
  </defs>
  <g id="Layer_1-2" data-name="Layer 1">
    <g>
      <g>
        <polygon class="cls-2" points="462.62 145.6 408.45 145.6 408.45 96.12 387.28 96.12 387.28 213.01 408.45 213.01 408.45 163.35 462.62 163.35 462.62 213.01 483.85 213.01 483.85 96.12 462.62 96.12 462.62 145.6"/>
        <path class="cls-2" d="M573.11,165.72c6.16-2.99,10.83-7.23,14.01-12.73,3.18-5.5,4.77-11.99,4.77-19.49s-1.57-13.99-4.71-19.6c-3.14-5.61-7.76-9.98-13.87-13.1-6.11-3.12-13.65-4.68-22.63-4.68h-43.83v116.89h21.17v-42.81h21.55l22.97,42.81h23.63l-25.29-46.3c.76-.31,1.51-.64,2.24-.99ZM528.03,113.81h19.41c5.29,0,9.61.77,12.95,2.31,3.35,1.54,5.84,3.79,7.48,6.74,1.64,2.95,2.45,6.5,2.45,10.64s-.81,7.64-2.43,10.47c-1.62,2.83-4.1,4.99-7.45,6.45-3.35,1.47-7.65,2.2-12.9,2.2h-19.52v-38.81Z"/>
        <path class="cls-2" d="M679.46,103.11c-8.35-4.66-18.33-6.99-29.94-6.99h-40.41v116.89h39.61c11.87,0,22.04-2.34,30.5-7.02,8.47-4.68,14.95-11.4,19.46-20.15,4.51-8.75,6.76-19.21,6.76-31.39s-2.25-22.56-6.73-31.28c-4.49-8.71-10.91-15.4-19.26-20.06ZM680.35,176.79c-2.74,5.96-6.83,10.43-12.27,13.41-5.44,2.99-12.23,4.48-20.38,4.48h-17.41v-80.25h18.04c7.91,0,14.54,1.48,19.89,4.42,5.35,2.95,9.39,7.38,12.13,13.3,2.74,5.92,4.11,13.35,4.11,22.29s-1.37,16.39-4.11,22.34Z"/>
        <polygon class="cls-1" points="814.31 182.07 813.28 182.07 804.95 96.12 784.23 96.12 747.53 182.02 746.44 182.02 739.6 96.12 716.82 96.12 730.41 213.01 751.3 213.01 788.45 130.99 789.36 130.99 799.07 213.01 819.96 213.01 872.35 96.12 849.58 96.12 814.31 182.07"/>
        <polygon class="cls-2" points="937.57 147.83 936.43 147.83 907.84 96.12 883.92 96.12 926.44 169.4 926.44 213.01 947.56 213.01 947.56 169.4 990.08 96.12 966.16 96.12 937.57 147.83"/>
        <path class="cls-2" d="M1067.34,213.01h23.63l-25.29-46.3c.76-.31,1.51-.64,2.24-.99,6.16-2.99,10.83-7.23,14.01-12.73,3.18-5.5,4.77-11.99,4.77-19.49s-1.57-13.99-4.71-19.6-7.76-9.98-13.87-13.1c-6.11-3.12-13.65-4.68-22.63-4.68h-43.83v116.89h21.17v-42.81h21.55l22.97,42.81ZM1022.82,113.81h19.41c5.29,0,9.61.77,12.95,2.31s5.84,3.79,7.48,6.74c1.64,2.95,2.45,6.5,2.45,10.64s-.81,7.64-2.43,10.47c-1.62,2.83-4.1,4.99-7.45,6.45-3.35,1.47-7.65,2.2-12.9,2.2h-19.52v-38.81Z"/>
      </g>
      <g>
        <path class="cls-1" d="M240.85,240.85c11.53-11.53,36.74-31.7,48.99-42.45,24.83-21.81,25.69-62.14,2.59-85.24-.83-.83-1.7-1.64-2.59-2.43-12.25-10.76-37.46-30.93-48.99-42.45-11.53-11.53-31.7-36.74-42.45-48.99-.79-.89-1.6-1.76-2.43-2.59-23.1-23.1-63.43-22.23-85.24,2.59-10.76,12.25-30.93,37.46-42.45,48.99-11.53,11.53-36.74,31.7-48.99,42.45-24.83,21.81-25.69,62.14-2.59,85.24.83.83,1.7,1.64,2.59,2.43,12.25,10.76,37.46,30.93,48.99,42.45,11.53,11.53,31.7,36.74,42.45,48.99.79.89,1.6,1.76,2.43,2.59,23.1,23.1,63.43,22.23,85.24-2.59,10.76-12.25,30.93-37.46,42.45-48.99ZM207.1,269.85c-5.05,6.03-9.82,11.72-13.43,15.83-4.67,5.32-10.39,9.52-16.98,12.48-6.36,2.85-13.2,4.41-20.33,4.64-14.72.48-28.85-4.93-38.74-14.83-.74-.74-1.46-1.51-2.15-2.29-3.61-4.11-8.38-9.8-13.43-15.83-10.08-12.02-21.5-25.65-29.3-33.45-7.8-7.8-21.43-19.22-33.45-29.3-6.03-5.05-11.72-9.82-15.83-13.43-.78-.69-1.56-1.41-2.29-2.15-9.9-9.9-15.3-24.02-14.83-38.74.23-7.13,1.79-13.97,4.64-20.33,2.96-6.59,7.16-12.31,12.48-16.98,4.11-3.61,9.8-8.38,15.83-13.43,12.02-10.08,25.65-21.5,33.45-29.3,7.8-7.8,19.22-21.43,29.3-33.45,5.05-6.03,9.82-11.72,13.43-15.83,4.68-5.32,10.39-9.52,16.98-12.48,6.36-2.85,13.2-4.41,20.33-4.64,14.72-.48,28.85,4.93,38.74,14.83.74.74,1.46,1.51,2.15,2.29,3.61,4.11,8.38,9.8,13.43,15.83,10.08,12.02,21.5,25.65,29.3,33.45,7.8,7.8,21.43,19.22,33.45,29.3,6.03,5.05,11.72,9.82,15.83,13.43.78.69,1.56,1.41,2.3,2.15h0c9.9,9.9,15.3,24.02,14.83,38.74-.23,7.13-1.79,13.98-4.64,20.33-2.96,6.59-7.16,12.31-12.48,16.98-4.11,3.61-9.8,8.38-15.83,13.43-12.02,10.08-25.65,21.5-33.45,29.3-7.8,7.8-19.22,21.43-29.3,33.45Z"/>
        <path class="cls-1" d="M199.37,144.95c-.08-.08-.16-.16-.25-.24-4.45-4.23-14.2-11.82-18.54-16.17-4.34-4.34-11.94-14.09-16.17-18.54-.08-.08-.16-.17-.24-.25-5.33-5.33-14.24-5.25-19.46.25-4.23,4.45-11.82,14.2-16.17,18.54-4.34,4.34-14.09,11.94-18.54,16.17-5.49,5.22-5.58,14.13-.25,19.46.08.08.16.16.25.24,4.45,4.23,14.2,11.82,18.54,16.17,4.34,4.34,11.94,14.09,16.17,18.54.08.08.16.17.24.25,5.33,5.33,14.24,5.25,19.46-.25,4.27-4.49,11.93-14.31,16.31-18.68,4.31-4.31,13.98-11.83,18.4-16.03,5.5-5.22,5.58-14.13.25-19.46ZM166.92,186.63c-2.58,3.07-5.25,6.25-7.07,8.16-1.34,1.41-3.18,2.2-5.19,2.22-2.01.03-3.88-.72-5.25-2.09-.04-.04-.09-.09-.13-.13-1.8-1.89-4.45-5.05-7.01-8.1-3.3-3.93-6.71-8-9.27-10.55-2.55-2.55-6.62-5.97-10.55-9.27-3.05-2.56-6.21-5.21-8.1-7.01-.04-.04-.09-.08-.13-.13-1.38-1.38-2.12-3.24-2.09-5.26.03-2.01.82-3.85,2.22-5.19,1.89-1.8,5.05-4.45,8.1-7.01,3.93-3.3,8-6.71,10.55-9.27,2.55-2.55,5.97-6.62,9.27-10.55,2.56-3.05,5.21-6.21,7.01-8.1,1.34-1.41,3.18-2.2,5.19-2.22,2.01-.03,3.88.72,5.26,2.09.04.04.09.09.13.13,1.8,1.89,4.45,5.05,7.01,8.1,3.3,3.93,6.71,8,9.27,10.55,2.55,2.55,6.62,5.97,10.55,9.27,3.05,2.56,6.21,5.21,8.1,7.01.04.04.09.09.13.13h0c1.38,1.38,2.12,3.24,2.09,5.26-.03,2.01-.82,3.85-2.22,5.19-1.88,1.78-5.02,4.41-8.05,6.96-3.9,3.27-7.93,6.65-10.47,9.18-2.58,2.57-6.02,6.68-9.36,10.64Z"/>
        <path class="cls-1" d="M234.6,138.62c-.07-.07-.15-.15-.23-.22-8.07-7.85-25.05-22.68-33.01-30.64-7.96-7.96-22.79-24.94-30.64-33.01-.07-.08-.15-.15-.22-.23-8.82-8.82-23.37-8.75-32.1.23-7.85,8.07-22.68,25.05-30.64,33.01-7.96,7.96-24.94,22.79-33.01,30.64-8.97,8.73-9.05,23.28-.23,32.1.07.07.15.15.23.22,8.07,7.85,25.05,22.68,33.01,30.64,7.96,7.96,22.79,24.94,30.64,33.01.07.08.15.15.22.23,8.82,8.82,23.37,8.75,32.1-.23,7.85-8.07,22.68-25.05,30.64-33.01,7.96-7.96,24.94-22.79,33.01-30.64,8.97-8.73,9.05-23.28.23-32.1ZM179.87,215.22c-5.22,5.74-10.14,11.16-13.65,14.77-3.03,3.12-7.13,4.85-11.53,4.88-4.41.03-8.53-1.64-11.61-4.72-.05-.05-.11-.11-.16-.16-3.51-3.61-8.44-9.03-13.66-14.77-6.2-6.82-12.61-13.88-17.05-18.31s-11.48-10.84-18.31-17.04c-5.74-5.22-11.16-10.15-14.77-13.66-.05-.05-.11-.11-.16-.16-3.07-3.07-4.75-7.19-4.72-11.6.03-4.41,1.76-8.5,4.88-11.53,3.61-3.51,9.03-8.44,14.77-13.66,6.82-6.2,13.88-12.61,18.31-17.04,4.43-4.43,10.84-11.48,17.04-18.31,5.22-5.74,10.15-11.16,13.66-14.77,3.03-3.12,7.13-4.85,11.53-4.88,4.41-.03,8.53,1.64,11.6,4.72.05.05.11.11.16.16,3.51,3.61,8.44,9.03,13.65,14.77,6.2,6.82,12.62,13.88,17.05,18.31,4.43,4.43,11.49,10.84,18.31,17.05,5.74,5.22,11.16,10.14,14.77,13.65.05.05.11.11.16.16,3.07,3.07,4.75,7.19,4.72,11.61-.03,4.41-1.76,8.5-4.88,11.53-3.61,3.51-9.03,8.44-14.77,13.65-6.82,6.2-13.88,12.62-18.31,17.05-4.43,4.43-10.84,11.49-17.05,18.31Z"/>
        <path class="cls-1" d="M265.88,128.33c-.12-.12-.25-.25-.37-.37-10.69-10.4-33.11-30.14-43.66-40.69-10.55-10.55-30.29-32.96-40.69-43.66-.12-.13-.24-.25-.37-.37-14.52-14.52-38.47-14.4-52.83.37-10.4,10.69-30.14,33.11-40.69,43.66-10.55,10.55-32.96,30.29-43.66,40.69-14.77,14.36-14.89,38.31-.37,52.83.12.12.25.25.37.37,10.69,10.4,33.11,30.14,43.66,40.69,10.55,10.55,30.29,32.96,40.69,43.66.12.13.24.25.37.37,14.52,14.52,38.47,14.4,52.83-.37,10.4-10.69,30.14-33.11,40.69-43.66,10.55-10.55,32.96-30.29,43.66-40.69,14.77-14.36,14.9-38.31.37-52.83ZM194.68,241.7c-6.88,7.53-13.38,14.64-18.03,19.41-5.75,5.91-13.52,9.2-21.86,9.26-8.35.06-16.17-3.12-22-8.95-.1-.1-.2-.21-.31-.31-4.64-4.78-11.15-11.89-18.03-19.42-8.29-9.06-16.85-18.43-22.72-24.3s-15.24-14.44-24.3-22.72c-7.53-6.88-14.64-13.39-19.42-18.03-.1-.1-.21-.2-.31-.31-5.83-5.83-9.01-13.65-8.95-22,.06-8.35,3.35-16.11,9.26-21.86,4.78-4.64,11.89-11.14,19.42-18.03,9.06-8.29,18.44-16.85,24.3-22.72s14.44-15.24,22.72-24.31c6.88-7.53,13.38-14.64,18.03-19.42,5.75-5.91,13.52-9.2,21.86-9.26,8.35-.06,16.17,3.12,22,8.95.1.1.2.21.31.31,4.64,4.78,11.14,11.89,18.03,19.42,8.29,9.06,16.85,18.43,22.72,24.3,5.87,5.87,15.24,14.44,24.3,22.72,7.53,6.88,14.64,13.39,19.42,18.03.1.1.21.2.31.31h0c5.83,5.83,9.01,13.64,8.95,22-.06,8.35-3.35,16.11-9.26,21.86-4.78,4.64-11.89,11.14-19.41,18.03-9.06,8.29-18.44,16.85-24.31,22.72-5.87,5.87-14.44,15.24-22.72,24.31Z"/>
      </g>
    </g>
  </g>
</svg>